<svg viewBox="0 0 311 311">
  <g fill="none" fill-rule="evenodd">
    <path fill="#ABDDDE" d="M4 164.979l3.102-56.428 21.915-35.718 10.306-15.407L64.14 34.414l24.916-14.507L141.491 5l51.134 3.902 50.233 23.712 32.221 29.814 19.012 31.716L307 143.268l-1.701 37.218L226.247 208 68.943 194.493l-42.428-14.007z"/>
    <path d="M307 162.05v.195c-.3 1.276-2.696 2.551-7.19 3.729-19.475 5.2-76.3 9.026-143.31 9.026s-123.935-3.826-143.31-9.026c-4.494-1.178-6.99-2.453-7.19-3.827v-.196c.1-1.374 2.497-2.65 6.89-3.826C32.066 152.826 89.09 149 156.5 149c67.31 0 124.335 3.826 143.61 9.125 4.293 1.177 6.69 2.452 6.89 3.728v.196zM32.2 147.3c-12 0-21.3-5.1-21.3-11.6 0-1 .2-1.9.6-2.8l1.3-1.8.4 1.9c.6 2.2 5.4 8.6 19.3 8.8h.6c13.3 0 17.8-6.7 18.6-8l.7-1.7 1 1.9c.1.5.2 1.1.2 1.7 0 6.5-9.4 11.6-21.4 11.6z" fill="#171717"/>
    <path d="M52.7 135.5c0 5.9-9.2 10.7-20.4 10.7-11.3 0-20.4-4.8-20.4-10.7 0-.8.2-1.7.5-2.4.7 2.7 6.1 9.3 20.1 9.5 14.2.2 19.1-6.8 20-8.4.1.4.2.9.2 1.3z" fill="#171717"/>
    <path d="M32.5 143.6c-15-.2-20.2-7.4-21-10.2l-.1-.3.1-.3c2.3-5.2 10.8-8.8 20.7-8.8 10.8 0 19.7 4.2 21.1 10l.1.4-.2.3c-.9 1.5-5.9 8.9-20.2 8.9h-.5z" fill="#171717"/>
    <path d="M52.5 134.1c-.9 1.6-5.9 8.7-20 8.4-14.1-.2-19.4-6.8-20.1-9.5 2.1-4.7 10.2-8.3 19.9-8.3 10.3.2 18.9 4.2 20.2 9.4z" fill="#171717"/>
    <path d="M51.9 135.3c0 5.6-8.8 10.1-19.7 10.1-10.9 0-19.7-4.5-19.7-10.1 0-.8.2-1.6.5-2.3.7 2.6 5.8 8.7 19.4 8.9 13.6.2 18.4-6.4 19.3-8 .2.5.2 1 .2 1.4z" fill="#6D3E98"/>
    <path d="M51.8 134c-.9 1.5-5.6 8.2-19.3 8-13.6-.2-18.7-6.4-19.4-8.9 2-4.5 9.8-7.8 19.2-7.8 9.9 0 18.2 3.8 19.5 8.7z" fill="#804FA0"/>
    <path d="M31.1 128.8c1.7.6 3.6.7 5.4 1.1 2 .5 3.9 1.2 5.8 2 1.1.5 2.2-1.1 1-1.7-3.3-1.8-8.5-3.3-12.2-1.7-.1.1-.1.2 0 .3zM44.6 133c.8.4 1.4 1 2.1 1.6.7.6 1.9-.2 1.3-1-.6-.9-1.6-1.5-2.6-2-.4-.2-.8-.1-1.1.3-.2.4-.1.9.3 1.1z" fill="#A880BA"/>
    <path d="M28.9 162.9c-9.6 6.1-19.7 6.8-23 1.6-.5-.8-.8-1.6-.9-2.6l.2-2.1 1.3 1.4c1.6 1.5 8.7 4.1 19.9-2.8.2-.1.3-.2.5-.3 10.6-6.8 10.8-14.4 10.8-15.9l-.3-1.7 1.8 1c.4.3.7.7 1 1.2 3.1 5.2-1.8 14-11.3 20.2z" fill="#171717"/>
    <path d="M39.2 143c3 4.7-1.9 13.2-10.9 19-9 5.8-18.8 6.6-21.8 1.9-.4-.7-.7-1.4-.8-2.2 2 1.8 9.6 4.3 20.9-2.7 11.4-7.1 11.8-15.2 11.7-17 .4.3.7.6.9 1z" fill="#171717"/>
    <path d="M27.2 159.8c-12.1 7.5-20 4.4-22 2.6l-.2-.2v-.3c-.8-5.3 4.1-12.6 12.1-17.6 8.6-5.5 17.9-6.7 22-2.8l.3.2v.3c.1 1.6-.1 10.1-11.6 17.4-.3.2-.4.3-.6.4z" fill="#171717"/>
    <path d="M38.3 142c.1 1.8-.3 9.9-11.7 17-11.4 7-19 4.5-20.9 2.7-.7-4.9 3.9-11.8 11.7-16.8 8.3-5.3 17.2-6.4 20.9-2.9z" fill="#171717"/>
    <path d="M38.5 143.2c2.8 4.4-1.9 12.6-10.6 18.1-8.7 5.6-18.1 6.5-20.9 2-.4-.6-.7-1.3-.8-2.1 1.9 1.7 9.1 4 20.1-2.8 11-6.8 11.4-14.5 11.4-16.2.3.4.6.7.8 1z" fill="#EE3A82"/>
    <path d="M37.7 142.3c.1 1.7-.3 9.4-11.4 16.2-10.9 6.8-18.2 4.5-20.1 2.8-.7-4.6 3.9-11.2 11.4-16 8-5.2 16.6-6.3 20.1-3z" fill="#F06EA9"/>
    <path d="M18.5 148.6c1.7-.4 3.2-1.3 4.9-1.9 1.9-.7 3.7-1 5.7-1.3 1.2-.2 1.2-2-.1-1.9-3.6.2-8.5 1.7-10.6 4.9-.1.2 0 .3.1.2zM31.5 145.1c.9-.1 1.6.1 2.5.2.8.1 1.4-1.1.5-1.5-1-.4-2-.4-3.1-.3-.4.1-.7.3-.7.8s.4.9.8.8z" fill="#F6ACCC"/>
    <path d="M155.5 0C69.59 0 0 69.542 0 155.395c0 1.5 0 3.002.1 4.402v.2c.2 1.401 2.804 2.702 7.41 4.003-.2-2.702-.2-5.503-.3-8.305v-.4c0-81.85 66.385-148.19 148.29-148.19 81.905 0 148.29 66.34 148.29 148.19v.4c0 2.802-.1 5.503-.3 8.305 4.506-1.3 7.11-2.602 7.41-4.002v-.4c0-1.402.1-2.902.1-4.303C311 69.542 241.41 0 155.5 0z" fill="#FFF"/>
    <path d="M310 160c-2.497 83.822-70.909 151-155 151S2.397 243.822 0 160c.2 1.404 2.796 2.707 7.39 4.01C11.885 242.018 76.302 303.78 155 303.78c78.798 0 143.115-61.863 147.61-139.77 4.594-1.303 7.19-2.606 7.39-4.01z" fill="#F9FBFC"/>
    <path d="M201.17 45.877c15.184 31.93-33.566 25.023-78.52 46.443-44.953 21.42-69.029 62.96-84.113 31.03-15.185-31.93 8.99-75.171 53.944-96.49 44.854-21.521 93.604-12.913 108.689 19.017z" fill="#FFF" opacity=".3"/>
    <path d="M164.377 46.76c9.11 19.088-21.825 15.708-50.759 29.327-28.933 13.62-44.952 39.168-54.063 20.08-9.11-19.086 6.908-45.629 35.842-59.248 28.934-13.62 59.87-9.245 68.98 9.842z" fill="#FFF" opacity=".4"/>
    <path d="M300 155.6c0 3.4-.1 6.8-.4 10.1-5.388 1.2-12.574 2.3-21.256 3.3 2.296-10.2 3.493-20.7 3.493-31.6 0-31.8-10.279-61.2-27.644-85.1-.997-1.8-2.095-3.5-3.193-5.3 30.039 26.5 49 65.3 49 108.6z" fill="#FFF" opacity=".3"/>
    <path d="M267 185.8c-12 0-21.3-5.1-21.3-11.6 0-1 .2-1.9.6-2.8l1.3-1.8.4 1.9c.6 2.2 5.4 8.6 19.3 8.8h.6c13.3 0 17.8-6.7 18.6-8l.7-1.7 1 1.9c.1.5.2 1.1.2 1.7 0 6.5-9.4 11.6-21.4 11.6z" fill="#171717"/>
    <path d="M287.5 174.1c0 5.9-9.2 10.7-20.4 10.7-11.3 0-20.4-4.8-20.4-10.7 0-.8.2-1.7.5-2.4.7 2.7 6.1 9.3 20.1 9.5 14.2.2 19.1-6.8 20-8.4.1.4.2.8.2 1.3z" fill="#171717"/>
    <path d="M267.3 182.2c-15-.2-20.2-7.4-21-10.2l-.1-.3.1-.3c2.3-5.2 10.8-8.8 20.7-8.8 10.8 0 19.7 4.2 21.1 10l.1.4-.2.3c-.9 1.5-5.9 8.9-20.2 8.9h-.5z" fill="#171717"/>
    <path d="M287.3 172.7c-.9 1.6-5.9 8.7-20 8.4-14.1-.2-19.4-6.8-20.1-9.5 2.1-4.7 10.2-8.3 19.9-8.3 10.3.1 18.9 4.2 20.2 9.4z" fill="#171717"/>
    <path d="M286.7 173.9c0 5.6-8.8 10.1-19.7 10.1-10.9 0-19.7-4.5-19.7-10.1 0-.8.2-1.6.5-2.3.7 2.6 5.8 8.7 19.4 8.9 13.6.2 18.4-6.4 19.3-8 .2.5.2.9.2 1.4z" fill="#EE3A82"/>
    <path d="M286.6 172.6c-.9 1.5-5.6 8.2-19.3 8-13.6-.2-18.7-6.4-19.4-8.9 2-4.5 9.8-7.8 19.2-7.8 9.9-.1 18.2 3.7 19.5 8.7z" fill="#F06EA9"/>
    <path d="M265.9 167.3c1.7.6 3.6.7 5.4 1.1 2 .5 3.9 1.2 5.8 2 1.1.5 2.2-1.1 1-1.7-3.3-1.8-8.5-3.3-12.2-1.7-.2.1-.1.3 0 .3zM279.4 171.6c.8.4 1.4 1 2.1 1.6.7.6 1.9-.2 1.3-1-.6-.9-1.6-1.5-2.6-2-.4-.2-.8-.1-1.1.3-.2.4-.1.9.3 1.1z" fill="#F6ACCC"/>
    <path d="M248.8 171.7c-.1-.3-.1-.6-.1-.8"/>
    <path d="M177.3 170.3c-12 0-21.3-5.1-21.3-11.6 0-1 .2-1.9.6-2.8l1.3-1.8.4 1.9c.6 2.2 5.4 8.6 19.3 8.8h.6c13.3 0 17.8-6.7 18.6-8l.7-1.7 1 1.9c.1.5.2 1.1.2 1.7-.1 6.6-9.5 11.6-21.4 11.6z" fill="#171717"/>
    <path d="M197.7 158.6c0 5.9-9.2 10.7-20.4 10.7-11.3 0-20.4-4.8-20.4-10.7 0-.8.2-1.7.5-2.4.7 2.7 6.1 9.3 20.1 9.5 14.2.2 19.1-6.8 20-8.4.1.4.2.8.2 1.3z" fill="#171717"/>
    <path d="M177.5 166.7c-15-.2-20.2-7.4-21-10.2l-.1-.3.1-.3c2.3-5.2 10.8-8.8 20.7-8.8 10.8 0 19.7 4.2 21.1 10l.1.4-.2.3c-.9 1.5-5.9 8.9-20.2 8.9h-.5z" fill="#171717"/>
    <path d="M197.5 157.2c-.9 1.6-5.9 8.7-20 8.4-14.1-.2-19.4-6.8-20.1-9.5 2.1-4.7 10.2-8.3 19.9-8.3 10.3.1 18.9 4.2 20.2 9.4z" fill="#171717"/>
    <path d="M197 158.4c0 5.6-8.8 10.1-19.7 10.1-10.9 0-19.7-4.5-19.7-10.1 0-.8.2-1.6.5-2.3.7 2.6 5.8 8.7 19.4 8.9 13.6.2 18.4-6.4 19.3-8 .1.5.2 1 .2 1.4z" fill="#EE3A82"/>
    <path d="M196.8 157.1c-.9 1.5-5.6 8.2-19.3 8-13.6-.2-18.7-6.4-19.4-8.9 2-4.5 9.8-7.8 19.2-7.8 10-.1 18.2 3.8 19.5 8.7z" fill="#F06EA9"/>
    <path d="M176.1 151.9c1.7.6 3.6.7 5.4 1.1 2 .5 3.9 1.2 5.8 2 1.1.5 2.2-1.1 1-1.7-3.3-1.8-8.5-3.3-12.2-1.7-.1 0-.1.2 0 .3zM189.6 156.1c.8.4 1.4 1 2.1 1.6.7.6 1.9-.2 1.3-1-.6-.9-1.6-1.5-2.6-2-.4-.2-.8-.1-1.1.3-.2.4 0 .9.3 1.1z" fill="#F6ACCC"/>
    <path d="M159 156.2c-.1-.3-.1-.6-.1-.8"/>
    <g>
      <path d="M255 152c-10.1 6.4-20.7 7.2-24.2 1.7-.5-.8-.8-1.7-1-2.7l.2-2.2 1.3 1.4c1.7 1.5 9.2 4.3 21-3 .2-.1.3-.2.5-.3 11.2-7.2 11.4-15.2 11.4-16.8l-.4-1.8 1.9 1c.4.4.8.8 1.1 1.3 3.5 5.6-1.7 15-11.8 21.4z" fill="#171717"/>
      <path d="M265.9 131.1c3.2 5-2 13.9-11.5 20s-19.8 7-23 2c-.5-.7-.7-1.5-.9-2.3 2.1 1.9 10.1 4.5 22.1-2.9 12-7.4 12.4-16 12.3-17.9.5.4.8.7 1 1.1z" fill="#171717"/>
      <path d="M253.2 148.8c-12.8 7.9-21 4.7-23.2 2.8l-.2-.2v-.3c-.9-5.6 4.4-13.2 12.7-18.6 9.1-5.8 18.8-7.1 23.2-3l.3.3v.4c.1 1.7-.1 10.7-12.2 18.4-.2 0-.4.1-.6.2z" fill="#171717"/>
      <path d="M265 130c.1 1.9-.3 10.4-12.3 17.9-12 7.4-20 4.8-22.1 2.9-.8-5.1 4.1-12.5 12.3-17.7 8.8-5.6 18.2-6.8 22.1-3.1z" fill="#171717"/>
      <path d="M265.2 131.4c3 4.7-2 13.2-11.2 19.1-9.2 5.9-19 6.8-22 2.1-.4-.7-.7-1.4-.8-2.2 2 1.8 9.6 4.2 21.1-2.9 11.6-7.2 12-15.3 12-17.1.3.2.6.6.9 1z" fill="#EE3A82"/>
      <path d="M264.3 130.3c.1 1.8-.4 9.9-12 17.1-11.5 7.1-19.2 4.7-21.1 2.9-.7-4.8 4.1-11.8 12-16.9 8.4-5.3 17.4-6.5 21.1-3.1z" fill="#F06EA9"/>
      <path d="M244.1 137c1.7-.4 3.4-1.3 5.1-2 2-.7 3.9-1.1 6-1.4 1.2-.2 1.2-2.1-.1-2-3.8.2-8.9 1.8-11.2 5.1-.1.3.1.4.2.3zM257.8 133.4c.9-.1 1.7.1 2.6.3.9.1 1.5-1.2.6-1.5-1-.4-2.2-.4-3.2-.3-.4.1-.8.4-.7.8-.1.3.2.7.7.7z" fill="#F6ACCC"/>
      <path d="M232 150c-.3-.2-.4-.5-.5-.6"/>
    </g>
    <path d="M285.6 172.35s-.1.1-.2.3"/>
    <g>
      <path d="M281 172c-12 0-21.3-5.1-21.3-11.6 0-1 .2-1.9.6-2.8l1.3-1.8.4 1.9c.6 2.2 5.4 8.6 19.3 8.8h.6c13.3 0 17.8-6.7 18.6-8l.7-1.7 1 1.9c.1.5.2 1.1.2 1.7-.1 6.5-9.5 11.6-21.4 11.6z" fill="#171717"/>
      <path d="M301.4 160.3c0 5.9-9.2 10.7-20.4 10.7-11.3 0-20.4-4.8-20.4-10.7 0-.8.2-1.7.5-2.4.7 2.7 6.1 9.3 20.1 9.5 14.2.2 19.1-6.8 20-8.4.1.3.2.8.2 1.3z" fill="#171717"/>
      <path d="M281.2 168.4c-15-.2-20.2-7.4-21-10.2l-.1-.3.1-.3c2.3-5.2 10.8-8.8 20.7-8.8 10.8 0 19.7 4.2 21.1 10l.1.4-.2.3c-.9 1.5-5.9 8.9-20.2 8.9h-.5z" fill="#171717"/>
      <path d="M301.2 158.9c-.9 1.6-5.9 8.7-20 8.4-14.1-.2-19.4-6.8-20.1-9.5 2.1-4.7 10.2-8.3 19.9-8.3 10.3.1 18.9 4.1 20.2 9.4z" fill="#171717"/>
      <path d="M300.6 160.1c0 5.6-8.8 10.1-19.7 10.1-10.9 0-19.7-4.5-19.7-10.1 0-.8.2-1.6.5-2.3.7 2.6 5.8 8.7 19.4 8.9 13.6.2 18.4-6.4 19.3-8 .2.5.2.9.2 1.4z" fill="#CDAB2C"/>
      <path d="M300.5 158.7c-.9 1.5-5.6 8.2-19.3 8-13.6-.2-18.7-6.4-19.4-8.9 2-4.5 9.8-7.8 19.2-7.8 9.9 0 18.2 3.8 19.5 8.7z" fill="#F9CE19"/>
      <path d="M279.8 153.5c1.7.6 3.6.7 5.4 1.1 2 .5 3.9 1.2 5.8 2 1.1.5 2.2-1.1 1-1.7-3.3-1.8-8.5-3.3-12.2-1.7-.1.1-.1.3 0 .3zM293.3 157.8c.8.4 1.4 1 2.1 1.6.7.6 1.9-.2 1.3-1-.6-.9-1.6-1.5-2.6-2-.4-.2-.8-.1-1.1.3-.2.4-.1.9.3 1.1z" fill="#FEEB9B"/>
      <path d="M262.7 157.9c-.1-.3-.1-.6-.1-.8M299.7 158.5s-.1.1-.2.3"/>
    </g>
    <g>
      <path d="M222.5 148.3c-11.6-2.9-19.5-10.1-17.9-16.4.2-.9.7-1.8 1.3-2.6l1.7-1.4-.1 2c0 2.3 3.2 9.7 16.5 13.2.2.1.4.1.6.2 12.9 3.2 18.9-2.1 20-3.2l1-1.5.5 2.1c0 .5 0 1.1-.2 1.7-1.5 6.2-11.8 8.8-23.4 5.9z" fill="#171717"/>
      <path d="M245.1 141.9c-1.4 5.7-11.5 8.1-22.4 5.4-10.9-2.7-18.7-9.6-17.2-15.3.2-.8.6-1.6 1.1-2.2 0 2.8 3.6 10.5 17.2 14.1 13.7 3.7 20.2-2 21.5-3.3 0 .4-.1.8-.2 1.3z" fill="#171717"/>
      <path d="M223.6 144.8c-14.5-3.9-17.8-12.1-17.9-15v-.3l.2-.3c3.5-4.5 12.6-5.9 22.2-3.5 10.5 2.6 18.1 8.9 18.1 14.8v.4l-.3.3c-1.2 1.2-7.9 7.2-21.7 3.7-.2 0-.4 0-.6-.1z" fill="#171717"/>
      <path d="M245.3 140.5c-1.3 1.4-7.8 7-21.5 3.3-13.6-3.6-17.2-11.3-17.2-14.1 3.2-4.1 11.9-5.5 21.3-3.2 10.1 2.6 17.4 8.6 17.4 14z" fill="#171717"/>
      <path d="M244.5 141.5c-1.4 5.4-11 7.6-21.5 5-10.5-2.6-18-9.2-16.6-14.5.2-.8.6-1.5 1.1-2.1.1 2.7 3.5 9.9 16.6 13.4 13.2 3.5 19.4-1.8 20.6-3-.1.3-.1.8-.2 1.2z" fill="#CDAB2C"/>
      <path d="M244.6 140.2c-1.3 1.3-7.5 6.5-20.6 3-13.1-3.5-16.6-10.7-16.6-13.4 3-3.8 11.4-5.1 20.5-2.9 9.6 2.5 16.7 8.2 16.7 13.3z" fill="#F9CE19"/>
      <path d="M225.9 130.1c1.5 1 3.3 1.6 4.9 2.4 1.8.9 3.5 2.1 5.1 3.4 1 .8 2.4-.5 1.4-1.4-2.8-2.6-7.5-5.3-11.4-4.6-.1-.1-.1.1 0 .2zM237.9 137.5c.7.6 1.1 1.3 1.6 2.1.5.7 1.9.3 1.5-.7-.4-1-1.2-1.9-2-2.5-.3-.3-.8-.3-1.1 0-.3.3-.3.8 0 1.1z" fill="#FEEB9B"/>
      <path d="M208.2 130.2c0-.4 0-.6.1-.8M243.9 139.8l-.2.2"/>
    </g>
    <g>
      <path d="M36.1 179.3c-11.6-2.9-19.5-10.1-17.9-16.4.2-.9.7-1.8 1.3-2.6l1.7-1.4-.1 2c0 2.3 3.2 9.7 16.5 13.2.2.1.4.1.6.2 12.9 3.2 18.9-2.1 20-3.2l1-1.5.5 2.1c0 .5 0 1.1-.2 1.7-1.4 6.2-11.8 8.8-23.4 5.9z" fill="#171717"/>
      <path d="M58.8 172.9c-1.4 5.7-11.5 8.1-22.4 5.4-10.9-2.7-18.7-9.6-17.2-15.3.2-.8.6-1.6 1.1-2.2 0 2.8 3.6 10.5 17.2 14.1 13.7 3.7 20.2-2 21.5-3.3 0 .4-.1.9-.2 1.3z" fill="#171717"/>
      <path d="M37.2 175.8c-14.5-3.9-17.8-12.1-17.9-15v-.3l.2-.3c3.5-4.5 12.6-5.9 22.2-3.5 10.5 2.6 18.1 8.9 18.1 14.8v.4l-.3.3c-1.2 1.2-7.9 7.2-21.7 3.7-.2.1-.4 0-.6-.1z" fill="#171717"/>
      <path d="M59 171.5c-1.3 1.4-7.8 7-21.5 3.3-13.6-3.6-17.2-11.3-17.2-14.1 3.2-4.1 11.9-5.5 21.3-3.2 10 2.6 17.4 8.6 17.4 14z" fill="#171717"/>
      <path d="M58.1 172.5c-1.4 5.4-11 7.6-21.5 5-10.5-2.6-18-9.2-16.6-14.5.2-.8.6-1.5 1.1-2.1.1 2.7 3.5 9.9 16.6 13.4 13.2 3.5 19.4-1.8 20.6-3 0 .4-.1.8-.2 1.2z" fill="#CDAB2C"/>
      <path d="M58.3 171.2c-1.3 1.3-7.5 6.5-20.6 3-13.1-3.5-16.6-10.7-16.6-13.4 3-3.8 11.4-5.1 20.5-2.9 9.6 2.5 16.7 8.2 16.7 13.3z" fill="#F9CE19"/>
      <path d="M39.5 161.1c1.5 1 3.3 1.6 4.9 2.4 1.8.9 3.5 2.1 5.1 3.4 1 .8 2.4-.5 1.4-1.4-2.8-2.6-7.5-5.3-11.4-4.6-.1 0-.1.1 0 .2zM51.6 168.5c.7.6 1.1 1.3 1.6 2.1.5.7 1.9.3 1.5-.7-.4-1-1.2-1.9-2-2.5-.3-.3-.8-.3-1.1 0-.3.3-.3.8 0 1.1z" fill="#FEEB9B"/>
      <path d="M21.9 161.2c0-.4 0-.6.1-.8M57.6 170.8l-.2.2"/>
    </g>
    <g>
      <path d="M226.9 189.8c-12 0-21.3-5.1-21.3-11.6 0-1 .2-1.9.6-2.8l1.3-1.8.4 1.9c.6 2.2 5.4 8.6 19.3 8.8h.6c13.3 0 17.8-6.7 18.6-8l.7-1.7 1 1.9c.1.5.2 1.1.2 1.7 0 6.5-9.4 11.6-21.4 11.6z" fill="#171717"/>
      <path d="M247.4 178.1c0 5.9-9.2 10.7-20.4 10.7-11.3 0-20.4-4.8-20.4-10.7 0-.8.2-1.7.5-2.4.7 2.7 6.1 9.3 20.1 9.5 14.2.2 19.1-6.8 20-8.4.1.3.2.8.2 1.3z" fill="#171717"/>
      <path d="M227.2 186.2c-15-.2-20.2-7.4-21-10.2l-.1-.3.1-.3c2.3-5.2 10.8-8.8 20.7-8.8 10.8 0 19.7 4.2 21.1 10l.1.4-.2.3c-.9 1.5-5.9 8.9-20.2 8.9h-.5z" fill="#171717"/>
      <path d="M247.2 176.7c-.9 1.6-5.9 8.7-20 8.4-14.1-.2-19.4-6.8-20.1-9.5 2.1-4.7 10.2-8.3 19.9-8.3 10.3.1 18.9 4.1 20.2 9.4z" fill="#171717"/>
      <path d="M246.6 177.9c0 5.6-8.8 10.1-19.7 10.1-10.9 0-19.7-4.5-19.7-10.1 0-.8.2-1.6.5-2.3.7 2.6 5.8 8.7 19.4 8.9 13.6.2 18.4-6.4 19.3-8 .2.5.2.9.2 1.4z" fill="#CDAB2C"/>
      <path d="M246.4 176.6c-.9 1.5-5.6 8.2-19.3 8-13.6-.2-18.7-6.4-19.4-8.9 2-4.5 9.8-7.8 19.2-7.8 10-.1 18.3 3.7 19.5 8.7z" fill="#F9CE19"/>
      <path d="M225.8 171.3c1.7.6 3.6.7 5.4 1.1 2 .5 3.9 1.2 5.8 2 1.1.5 2.2-1.1 1-1.7-3.3-1.8-8.5-3.3-12.2-1.7-.2.1-.1.3 0 .3zM239.3 175.6c.8.4 1.4 1 2.1 1.6.7.6 1.9-.2 1.3-1-.6-.9-1.6-1.5-2.6-2-.4-.2-.8-.1-1.1.3-.2.4-.1.9.3 1.1z" fill="#FEEB9B"/>
      <path d="M208.7 175.7c-.1-.3-.1-.6-.1-.8M245.7 176.3s-.1.1-.2.3"/>
    </g>
    <g>
      <path d="M145 165.5c-12 0-21.3-5.1-21.3-11.6 0-1 .2-1.9.6-2.8l1.3-1.8.4 1.9c.6 2.2 5.4 8.6 19.3 8.8h.6c13.3 0 17.8-6.7 18.6-8l.7-1.7 1 1.9c.1.5.2 1.1.2 1.7-.1 6.5-9.5 11.6-21.4 11.6z" fill="#171717"/>
      <path d="M165.4 153.8c0 5.9-9.2 10.7-20.4 10.7-11.3 0-20.4-4.8-20.4-10.7 0-.8.2-1.7.5-2.4.7 2.7 6.1 9.3 20.1 9.5 14.2.2 19.1-6.8 20-8.4.1.3.2.8.2 1.3z" fill="#171717"/>
      <path d="M145.2 161.9c-15-.2-20.2-7.4-21-10.2l-.1-.3.1-.3c2.3-5.2 10.8-8.8 20.7-8.8 10.8 0 19.7 4.2 21.1 10l.1.4-.1.3c-.9 1.5-5.9 8.9-20.2 8.9h-.6z" fill="#171717"/>
      <path d="M165.2 152.4c-.9 1.6-5.9 8.7-20 8.4-14.1-.2-19.4-6.8-20.1-9.5 2.1-4.7 10.2-8.3 19.9-8.3 10.3.1 18.9 4.1 20.2 9.4z" fill="#171717"/>
      <path d="M164.7 153.6c0 5.6-8.8 10.1-19.7 10.1-10.9 0-19.7-4.5-19.7-10.1 0-.8.2-1.6.5-2.3.7 2.6 5.8 8.7 19.4 8.9 13.6.2 18.4-6.4 19.3-8 .1.5.2.9.2 1.4z" fill="#CDAB2C"/>
      <path d="M164.5 152.2c-.9 1.5-5.6 8.2-19.3 8-13.6-.2-18.7-6.4-19.4-8.9 2-4.5 9.8-7.8 19.2-7.8 10 0 18.2 3.8 19.5 8.7z" fill="#F9CE19"/>
      <path d="M143.8 147c1.7.6 3.6.7 5.4 1.1 2 .5 3.9 1.2 5.8 2 1.1.5 2.2-1.1 1-1.7-3.3-1.8-8.5-3.3-12.2-1.7-.1.1-.1.3 0 .3zM157.3 151.3c.8.4 1.4 1 2.1 1.6.7.6 1.9-.2 1.3-1-.6-.9-1.6-1.5-2.6-2-.4-.2-.8-.1-1.1.3-.2.4-.1.9.3 1.1z" fill="#FEEB9B"/>
      <path d="M126.7 151.4c-.1-.3-.1-.6-.1-.8M163.7 152s-.1.1-.2.3"/>
    </g>
    <g>
      <path d="M69.1 173.2c-12 0-21.3-5.1-21.3-11.6 0-1 .2-1.9.6-2.8l1.3-1.8.4 1.9c.6 2.2 5.4 8.6 19.3 8.8h.6c13.3 0 17.8-6.7 18.6-8l.7-1.7 1 1.9c.1.5.2 1.1.2 1.7 0 6.5-9.4 11.6-21.4 11.6z" fill="#171717"/>
      <path d="M89.6 161.5c0 5.9-9.2 10.7-20.4 10.7-11.3 0-20.4-4.8-20.4-10.7 0-.8.2-1.7.5-2.4.7 2.7 6.1 9.3 20.1 9.5 14.2.2 19.1-6.8 20-8.4.1.3.2.8.2 1.3z" fill="#171717"/>
      <path d="M69.4 169.5c-15-.2-20.2-7.4-21-10.2l-.1-.3.1-.3c2.3-5.2 10.8-8.8 20.7-8.8 10.8 0 19.7 4.2 21.1 10l.1.4-.2.3c-.9 1.5-5.9 8.9-20.2 8.9h-.5z" fill="#171717"/>
      <path d="M89.4 160.1c-.9 1.6-5.9 8.7-20 8.4-14.1-.2-19.4-6.8-20.1-9.5 2.1-4.7 10.2-8.3 19.9-8.3 10.3.1 18.9 4.1 20.2 9.4z" fill="#171717"/>
      <path d="M88.8 161.3c0 5.6-8.8 10.1-19.7 10.1-10.9 0-19.7-4.5-19.7-10.1 0-.8.2-1.6.5-2.3.7 2.6 5.8 8.7 19.4 8.9 13.6.2 18.4-6.4 19.3-8 .2.5.2.9.2 1.4z" fill="#529A43"/>
      <path d="M88.6 159.9c-.9 1.5-5.6 8.2-19.3 8-13.6-.2-18.7-6.4-19.4-8.9 2-4.5 9.8-7.8 19.2-7.8 10 0 18.3 3.8 19.5 8.7z" fill="#78C143"/>
      <path d="M68 154.7c1.7.6 3.6.7 5.4 1.1 2 .5 3.9 1.2 5.8 2 1.1.5 2.2-1.1 1-1.7-3.3-1.8-8.5-3.3-12.2-1.7-.2.1-.1.3 0 .3zM81.5 158.9c.8.4 1.4 1 2.1 1.6.7.6 1.9-.2 1.3-1-.6-.9-1.6-1.5-2.6-2-.4-.2-.8-.1-1.1.3-.2.4-.1.9.3 1.1z" fill="#B4D77E"/>
      <path d="M50.9 159.1c-.1-.3-.1-.6-.1-.8"/>
    </g>
    <g>
      <path d="M161.7 183.4c-11.3 3.8-21.9 1.9-23.9-4.2-.3-.9-.4-1.9-.3-2.9l.7-2.1 1 1.7c1.3 1.9 7.9 6.4 21.1 2.2.2-.1.4-.1.6-.2 12.6-4.2 14.8-12 15.1-13.5l.1-1.8 1.5 1.5c.3.4.6 1 .7 1.5 2 6.2-5.3 14-16.6 17.8z" fill="#171717"/>
      <path d="M177.3 165.8c1.9 5.6-5.3 13-16 16.6-10.7 3.6-20.9 1.9-22.8-3.7-.3-.8-.3-1.6-.3-2.5 1.6 2.3 8.7 6.9 22.1 2.6 13.5-4.3 15.9-12.5 16.3-14.4.4.5.6.9.7 1.4z" fill="#171717"/>
      <path d="M160.7 179.8c-14.3 4.6-21.6-.6-23.1-3l-.2-.3v-.3c.5-5.6 7.5-11.8 16.9-14.9 10.2-3.4 20-2.3 23.2 2.8l.2.3-.1.4c-.3 1.7-2.7 10.3-16.3 14.8-.2.1-.4.2-.6.2z" fill="#171717"/>
      <path d="M176.7 164.5c-.4 1.8-2.8 10.1-16.3 14.4-13.4 4.3-20.5-.3-22.1-2.6.5-5.2 7.1-11.1 16.2-14.1 9.9-3.4 19.3-2.3 22.2 2.3z" fill="#171717"/>
      <path d="M176.6 165.8c1.8 5.3-5.2 12.3-15.5 15.8-10.3 3.4-20.1 2-21.9-3.3-.3-.7-.3-1.5-.2-2.3 1.5 2.2 8.3 6.4 21.2 2.3 13-4.1 15.4-11.9 15.8-13.7l.6 1.2z" fill="#529A43"/>
      <path d="M176 164.6c-.4 1.7-2.8 9.5-15.8 13.7-12.9 4.1-19.7-.1-21.2-2.3.5-4.9 6.9-10.5 15.7-13.4 9.5-3.3 18.5-2.3 21.3 2z" fill="#78C143"/>
      <path d="M154.7 166.2c1.8 0 3.6-.5 5.4-.6 2.1-.2 4.1-.1 6.1.1 1.2.1 1.7-1.7.4-2-3.7-.7-9.1-.4-12.1 2.3 0 0 .1.2.2.2zM168.9 165.9c.9.2 1.6.5 2.5.9.8.4 1.7-.8.9-1.4-.9-.6-2-.9-3.1-1-.4 0-.8.2-.9.6-.1.4.1.9.6.9z" fill="#B4D77E"/>
      <path d="M139.9 175.8c-.2-.3-.3-.5-.3-.7"/>
    </g>
    <g>
      <path d="M103.4 143.2c-11.3 3.8-21.9 1.9-23.9-4.2-.3-.9-.4-1.9-.3-2.9l.7-2.1 1 1.7c1.3 1.9 7.9 6.4 21.1 2.2.2-.1.4-.1.6-.2 12.6-4.2 14.8-12 15.1-13.5l.1-1.8 1.5 1.5c.3.4.6 1 .7 1.5 2 6.2-5.3 14-16.6 17.8z" fill="#171717"/>
      <path d="M119 125.6c1.9 5.6-5.3 13-16 16.6-10.7 3.6-20.9 1.9-22.8-3.7-.3-.8-.3-1.6-.3-2.5 1.6 2.3 8.7 6.9 22.1 2.6 13.5-4.3 15.9-12.5 16.3-14.4.4.5.6.9.7 1.4z" fill="#171717"/>
      <path d="M102.4 139.6c-14.3 4.6-21.6-.6-23.1-3l-.2-.3v-.3c.5-5.6 7.5-11.8 16.9-14.9 10.2-3.4 20-2.3 23.2 2.8l.2.3-.1.4c-.3 1.7-2.7 10.3-16.3 14.8-.2.1-.4.2-.6.2z" fill="#171717"/>
      <path d="M118.4 124.3c-.4 1.8-2.8 10.1-16.3 14.4-13.4 4.3-20.5-.3-22.1-2.6.5-5.2 7.1-11.1 16.2-14.1 9.9-3.4 19.3-2.3 22.2 2.3z" fill="#171717"/>
      <path d="M118.2 125.6c1.8 5.3-5.2 12.3-15.5 15.8-10.3 3.4-20.1 2-21.9-3.3-.3-.7-.3-1.5-.2-2.3 1.5 2.2 8.3 6.4 21.2 2.3 13-4.1 15.4-11.9 15.8-13.7.3.4.5.8.6 1.2z" fill="#529A43"/>
      <path d="M117.6 124.4c-.4 1.7-2.8 9.5-15.8 13.7-12.9 4.1-19.7-.1-21.2-2.3.5-4.9 6.9-10.5 15.7-13.4 9.6-3.3 18.6-2.3 21.3 2z" fill="#78C143"/>
      <path d="M96.4 126c1.8 0 3.6-.5 5.4-.6 2.1-.2 4.1-.1 6.1.1 1.2.1 1.7-1.7.4-2-3.7-.7-9.1-.4-12.1 2.3 0 0 .1.2.2.2zM110.6 125.7c.9.2 1.6.5 2.5.9.8.4 1.7-.8.9-1.4-.9-.6-2-.9-3.1-1-.4 0-.8.2-.9.6-.1.4.1.9.6.9z" fill="#B4D77E"/>
      <path d="M81.6 135.6c-.2-.3-.3-.5-.3-.7"/>
    </g>
    <g>
      <path d="M191.7 151c-11.3 3.8-21.9 1.9-23.9-4.2-.3-.9-.4-1.9-.3-2.9l.7-2.1 1 1.7c1.3 1.9 7.9 6.4 21.1 2.2.2-.1.4-.1.6-.2 12.6-4.2 14.8-12 15.1-13.5l.1-1.8 1.5 1.5c.3.4.6 1 .7 1.5 2.1 6.2-5.2 14-16.6 17.8z" fill="#171717"/>
      <path d="M207.4 133.4c1.9 5.6-5.3 13-16 16.6-10.7 3.6-20.9 1.9-22.8-3.7-.3-.8-.3-1.6-.3-2.5 1.6 2.3 8.7 6.9 22.1 2.6 13.5-4.3 15.9-12.5 16.3-14.4.3.5.6 1 .7 1.4z" fill="#171717"/>
      <path d="M190.8 147.5c-14.3 4.6-21.6-.6-23.1-3l-.2-.3v-.3c.5-5.6 7.5-11.8 16.9-14.9 10.2-3.4 20-2.3 23.2 2.8l.2.3-.1.4c-.3 1.7-2.7 10.3-16.3 14.8-.2.1-.4.1-.6.2z" fill="#171717"/>
      <path d="M206.8 132.2c-.4 1.8-2.8 10.1-16.3 14.4-13.4 4.3-20.5-.3-22.1-2.6.5-5.2 7.1-11.1 16.2-14.1 9.9-3.4 19.3-2.3 22.2 2.3z" fill="#171717"/>
      <path d="M206.6 133.5c1.8 5.3-5.2 12.3-15.5 15.8-10.3 3.4-20.1 2-21.9-3.3-.3-.7-.3-1.5-.2-2.3 1.5 2.2 8.3 6.4 21.2 2.3 13-4.1 15.4-11.9 15.8-13.7.3.3.5.7.6 1.2z" fill="#529A43"/>
      <path d="M206 132.3c-.4 1.7-2.8 9.5-15.8 13.7-12.9 4.1-19.7-.1-21.2-2.3.5-4.9 6.9-10.5 15.7-13.4 9.5-3.3 18.6-2.3 21.3 2z" fill="#78C143"/>
      <path d="M184.8 133.8c1.8 0 3.6-.5 5.4-.6 2.1-.2 4.1-.1 6.1.1 1.2.1 1.7-1.7.4-2-3.7-.7-9.1-.4-12.1 2.3 0 .1.1.2.2.2zM198.9 133.6c.9.2 1.6.5 2.5.9.8.4 1.7-.8.9-1.4-.9-.6-2-.9-3.1-1-.4 0-.8.2-.9.6 0 .4.2.8.6.9z" fill="#B4D77E"/>
      <path d="M170 143.4c-.2-.3-.3-.5-.3-.7"/>
    </g>
    <g>
      <path d="M246.6 170.3c-12 0-21.3-5.1-21.3-11.6 0-1 .2-1.9.6-2.8l1.3-1.8.4 1.9c.6 2.2 5.4 8.6 19.3 8.8h.6c13.3 0 17.8-6.7 18.6-8l.7-1.7 1 1.9c.1.5.2 1.1.2 1.7 0 6.6-9.4 11.6-21.4 11.6z" fill="#171717"/>
      <path d="M267 158.6c0 5.9-9.2 10.7-20.4 10.7-11.3 0-20.4-4.8-20.4-10.7 0-.8.2-1.7.5-2.4.7 2.7 6.1 9.3 20.1 9.5 14.2.2 19.1-6.8 20-8.4.2.4.2.8.2 1.3z" fill="#171717"/>
      <path d="M246.8 166.7c-15-.2-20.2-7.4-21-10.2l-.1-.3.1-.3c2.3-5.2 10.8-8.8 20.7-8.8 10.8 0 19.7 4.2 21.1 10l.1.4-.2.3c-.9 1.5-5.9 8.9-20.2 8.9h-.5z" fill="#171717"/>
      <path d="M266.9 157.2c-.9 1.6-5.9 8.7-20 8.4-14.1-.2-19.4-6.8-20.1-9.5 2.1-4.7 10.2-8.3 19.9-8.3 10.3.1 18.9 4.2 20.2 9.4z" fill="#171717"/>
      <path d="M266.3 158.4c0 5.6-8.8 10.1-19.7 10.1-10.9 0-19.7-4.5-19.7-10.1 0-.8.2-1.6.5-2.3.7 2.6 5.8 8.7 19.4 8.9 13.6.2 18.4-6.4 19.3-8 .1.5.2 1 .2 1.4z" fill="#529A43"/>
      <path d="M266.1 157.1c-.9 1.5-5.6 8.2-19.3 8-13.6-.2-18.7-6.4-19.4-8.9 2-4.5 9.8-7.8 19.2-7.8 10-.1 18.3 3.8 19.5 8.7z" fill="#78C143"/>
      <path d="M245.5 151.9c1.7.6 3.6.7 5.4 1.1 2 .5 3.9 1.2 5.8 2 1.1.5 2.2-1.1 1-1.7-3.3-1.8-8.5-3.3-12.2-1.7-.2 0-.1.2 0 .3zM259 156.1c.8.4 1.4 1 2.1 1.6.7.6 1.9-.2 1.3-1-.6-.9-1.6-1.5-2.6-2-.4-.2-.8-.1-1.1.3-.2.4-.1.9.3 1.1z" fill="#B4D77E"/>
      <path d="M228.4 156.2c-.1-.3-.1-.6-.1-.8"/>
    </g>
    <g>
      <path d="M279.3 164.5c-12 0-21.3-5.1-21.3-11.6 0-1 .2-1.9.6-2.8l1.3-1.8.4 1.9c.6 2.2 5.4 8.6 19.3 8.8h.6c13.3 0 17.8-6.7 18.6-8l.7-1.7 1 1.9c.1.5.2 1.1.2 1.7-.1 6.5-9.4 11.6-21.4 11.6z" fill="#171717"/>
      <path d="M299.7 152.7c0 5.9-9.2 10.7-20.4 10.7-11.3 0-20.4-4.8-20.4-10.7 0-.8.2-1.7.5-2.4.7 2.7 6.1 9.3 20.1 9.5 14.2.2 19.1-6.8 20-8.4.2.4.2.9.2 1.3z" fill="#171717"/>
      <path d="M279.5 160.8c-15-.2-20.2-7.4-21-10.2l-.1-.3.1-.3c2.3-5.2 10.8-8.8 20.7-8.8 10.8 0 19.7 4.2 21.1 10l.1.4-.2.3c-.9 1.5-5.9 8.9-20.2 8.9h-.5z" fill="#171717"/>
      <path d="M299.5 151.3c-.9 1.6-5.9 8.7-20 8.4-14.1-.2-19.4-6.8-20.1-9.5 2.1-4.7 10.2-8.3 19.9-8.3 10.4.1 18.9 4.2 20.2 9.4z" fill="#171717"/>
      <path d="M299 152.5c0 5.6-8.8 10.1-19.7 10.1-10.9 0-19.7-4.5-19.7-10.1 0-.8.2-1.6.5-2.3.7 2.6 5.8 8.7 19.4 8.9 13.6.2 18.4-6.4 19.3-8 .1.5.2 1 .2 1.4z" fill="#6D3E98"/>
      <path d="M298.8 151.2c-.9 1.5-5.6 8.2-19.3 8-13.6-.2-18.7-6.4-19.4-8.9 2-4.5 9.8-7.8 19.2-7.8 10 0 18.2 3.8 19.5 8.7z" fill="#804FA0"/>
      <path d="M278.2 146c1.7.6 3.6.7 5.4 1.1 2 .5 3.9 1.2 5.8 2 1.1.5 2.2-1.1 1-1.7-3.3-1.8-8.5-3.3-12.2-1.7-.2 0-.1.2 0 .3zM291.6 150.2c.8.4 1.4 1 2.1 1.6.7.6 1.9-.2 1.3-1-.6-.9-1.6-1.5-2.6-2-.4-.2-.8-.1-1.1.3-.1.4 0 .9.3 1.1z" fill="#A880BA"/>
    </g>
    <g>
      <path d="M209.8 166.5c-11.3-3.9-18.5-11.8-16.4-17.9.3-.9.8-1.7 1.5-2.5l1.8-1.2-.3 1.9c-.2 2.3 2.3 9.9 15.3 14.6.2.1.4.1.6.2 12.6 4.4 19-.5 20.2-1.5l1.2-1.4.3 2.1c0 .5-.1 1.1-.3 1.6-2.1 6.3-12.6 8-23.9 4.1z" fill="#171717"/>
      <path d="M232.9 162.1c-1.9 5.6-12.1 7.1-22.8 3.4-10.7-3.7-17.7-11.2-15.8-16.8.3-.8.7-1.5 1.3-2.1-.2 2.8 2.7 10.7 15.9 15.5 13.3 4.8 20.2-.2 21.7-1.4 0 .5-.1.9-.3 1.4z" fill="#171717"/>
      <path d="M211.2 163.1c-14.1-5.1-16.7-13.6-16.5-16.5v-.3l.2-.2c3.9-4.1 13.1-4.8 22.5-1.5 10.2 3.5 17.2 10.4 16.7 16.3v.4l-.3.2c-1.3 1.1-8.5 6.5-22 1.8-.2 0-.4-.1-.6-.2z" fill="#171717"/>
      <path d="M233.2 160.7c-1.4 1.2-8.4 6.3-21.7 1.4-13.2-4.8-16.1-12.7-15.9-15.5 3.5-3.8 12.3-4.5 21.5-1.3 9.8 3.4 16.6 10 16.1 15.4z" fill="#171717"/>
      <path d="M232.3 161.7c-1.8 5.2-11.6 6.6-21.9 3.1-10.3-3.6-17.1-10.7-15.3-15.9.3-.7.7-1.4 1.2-2-.2 2.7 2.7 10.2 15.4 14.8 12.8 4.7 19.5-.1 20.8-1.2 0 .3-.1.7-.2 1.2z" fill="#6D3E98"/>
      <path d="M232.6 160.3c-1.4 1.2-8 5.9-20.8 1.2-12.7-4.6-15.6-12.1-15.4-14.8 3.4-3.6 11.8-4.1 20.6-1.1 9.4 3.4 16 9.7 15.6 14.7z" fill="#804FA0"/>
      <path d="M214.8 148.6c1.4 1.1 3.2 1.8 4.7 2.8 1.8 1.1 3.3 2.4 4.8 3.8.9.8 2.4-.3 1.5-1.3-2.5-2.8-7-5.9-10.9-5.6-.2.1-.2.3-.1.3zM226.1 157.1c.6.7 1 1.4 1.4 2.2.4.8 1.8.4 1.6-.5-.3-1-1-2-1.8-2.7-.3-.3-.8-.4-1.1-.1-.3.2-.4.8-.1 1.1z" fill="#A880BA"/>
    </g>
    <g>
      <path d="M101.2 163.9C89.9 160 82.7 152.1 84.8 146c.3-.9.8-1.7 1.5-2.5l1.8-1.2-.3 1.9c-.2 2.3 2.3 9.9 15.3 14.6.2.1.4.1.6.2 12.6 4.4 19-.5 20.2-1.5l1.2-1.4.3 2.1c0 .5-.1 1.1-.3 1.6-2.1 6.2-12.6 8-23.9 4.1z" fill="#171717"/>
      <path d="M124.3 159.5c-1.9 5.6-12.1 7.1-22.8 3.4-10.7-3.7-17.7-11.2-15.8-16.8.3-.8.7-1.5 1.3-2.1-.2 2.8 2.7 10.7 15.9 15.5 13.3 4.8 20.2-.2 21.7-1.4 0 .4-.1.9-.3 1.4z" fill="#171717"/>
      <path d="M102.6 160.5c-14.1-5.1-16.7-13.6-16.5-16.5v-.3l.2-.2c3.9-4.1 13.1-4.8 22.5-1.5 10.2 3.5 17.2 10.4 16.7 16.3v.4l-.3.2c-1.3 1.1-8.5 6.5-22 1.8-.2-.1-.4-.1-.6-.2z" fill="#171717"/>
      <path d="M124.6 158.1c-1.4 1.2-8.4 6.3-21.7 1.4-13.2-4.8-16.1-12.7-15.9-15.5 3.5-3.8 12.3-4.5 21.5-1.3 9.8 3.4 16.6 10 16.1 15.4z" fill="#171717"/>
      <path d="M123.7 159c-1.8 5.2-11.6 6.6-21.9 3.1-10.3-3.6-17.1-10.7-15.3-15.9.3-.7.7-1.4 1.2-2-.2 2.7 2.7 10.2 15.4 14.8 12.8 4.7 19.5-.1 20.8-1.2 0 .4-.1.8-.2 1.2z" fill="#6D3E98"/>
      <path d="M124 157.7c-1.4 1.2-8 5.9-20.8 1.2-12.7-4.6-15.6-12.1-15.4-14.8 3.4-3.6 11.8-4.1 20.6-1.1 9.4 3.3 16 9.6 15.6 14.7z" fill="#804FA0"/>
      <path d="M106.2 146c1.4 1.1 3.2 1.8 4.7 2.8 1.8 1.1 3.3 2.4 4.8 3.8.9.8 2.4-.3 1.5-1.3-2.5-2.8-7-5.9-10.9-5.6-.2.1-.2.2-.1.3zM117.5 154.4c.6.7 1 1.4 1.4 2.2.4.8 1.8.4 1.6-.5-.3-1-1-2-1.8-2.7-.3-.3-.8-.4-1.1-.1-.3.3-.4.8-.1 1.1z" fill="#A880BA"/>
    </g>
    <g>
      <path d="M35.9 162.1c-11.3-3.9-18.5-11.8-16.4-17.9.3-.9.8-1.7 1.5-2.5l1.8-1.2-.3 1.9c-.2 2.3 2.3 9.9 15.3 14.6.2.1.4.1.6.2 12.6 4.4 19-.5 20.2-1.5l1.2-1.4.3 2.1c0 .5-.1 1.1-.3 1.6-2.1 6.2-12.6 8-23.9 4.1z" fill="#171717"/>
      <path d="M59 157.7c-1.9 5.6-12.1 7.1-22.8 3.4-10.7-3.7-17.7-11.2-15.8-16.8.3-.8.7-1.5 1.3-2.1-.2 2.8 2.7 10.7 15.9 15.5 13.3 4.8 20.2-.2 21.7-1.4 0 .4-.1.9-.3 1.4z" fill="#171717"/>
      <path d="M37.3 158.7c-14.1-5.1-16.7-13.6-16.5-16.5v-.3l.2-.2c3.9-4.1 13.1-4.8 22.5-1.5 10.2 3.5 17.2 10.4 16.7 16.3v.4l-.3.2c-1.3 1.1-8.5 6.5-22 1.8-.2-.1-.4-.1-.6-.2z" fill="#171717"/>
      <path d="M59.3 156.3c-1.4 1.2-8.4 6.3-21.7 1.4-13.2-4.8-16.1-12.7-15.9-15.5 3.5-3.8 12.3-4.5 21.5-1.3 9.8 3.4 16.6 10 16.1 15.4z" fill="#171717"/>
      <path d="M58.4 157.2c-1.8 5.2-11.6 6.6-21.9 3.1-10.3-3.6-17.1-10.7-15.3-15.9.3-.7.7-1.4 1.2-2-.2 2.7 2.7 10.2 15.4 14.8 12.8 4.7 19.5-.1 20.8-1.2 0 .4-.1.8-.2 1.2z" fill="#6D3E98"/>
      <path d="M58.6 155.9c-1.4 1.2-8 5.9-20.8 1.2-12.7-4.6-15.6-12.1-15.4-14.8 3.4-3.6 11.8-4.1 20.6-1.1 9.5 3.3 16.1 9.6 15.6 14.7z" fill="#804FA0"/>
      <path d="M40.8 144.2c1.4 1.1 3.2 1.8 4.7 2.8 1.8 1.1 3.3 2.4 4.8 3.8.9.8 2.4-.3 1.5-1.3-2.5-2.8-7-5.9-10.9-5.6-.1.1-.2.2-.1.3zM52.2 152.6c.6.7 1 1.4 1.4 2.2.4.8 1.8.4 1.6-.5-.3-1-1-2-1.8-2.7-.3-.3-.8-.4-1.1-.1-.3.3-.4.8-.1 1.1z" fill="#A880BA"/>
    </g>
    <g>
      <path d="M197.7 181.6c-11.8 2.2-21.9-1.1-23.1-7.5-.2-.9-.1-1.9.1-2.9l1-2 .7 1.8c1 2.1 6.9 7.5 20.5 5.2.2 0 .4-.1.6-.1 13.1-2.4 16.3-9.8 16.8-11.2l.3-1.8 1.3 1.7c.2.5.4 1 .5 1.6 1.4 6.3-6.9 13-18.7 15.2z" fill="#171717"/>
      <path d="M215.7 166.3c1.1 5.8-7.1 12.2-18.1 14.2-11.1 2.1-21-1-22-6.8-.2-.8-.1-1.7.1-2.5 1.2 2.5 7.6 8 21.5 5.7 14-2.4 17.5-10.2 18.1-11.9.2.4.3.8.4 1.3z" fill="#171717"/>
      <path d="M197.3 177.9c-14.8 2.5-21.3-3.6-22.5-6.2l-.1-.3.1-.3c1.3-5.5 9-10.6 18.8-12.4 10.6-2 20.1.5 22.6 6l.2.3-.1.3c-.6 1.6-4.1 9.8-18.2 12.4-.4.2-.6.2-.8.2z" fill="#171717"/>
      <path d="M215.3 165c-.6 1.8-4.2 9.6-18.1 11.9-13.9 2.3-20.3-3.1-21.5-5.7 1.2-5 8.5-10 18.1-11.7 10.1-1.9 19.2.6 21.5 5.5z" fill="#171717"/>
      <path d="M214.9 166.2c1 5.5-6.8 11.5-17.5 13.5s-20.2-.8-21.2-6.3c-.1-.8-.1-1.6.1-2.4 1.2 2.4 7.3 7.5 20.7 5.2 13.4-2.3 16.9-9.7 17.5-11.3.2.5.3.9.4 1.3z" fill="#A01C37"/>
      <path d="M214.5 165c-.6 1.7-4.1 9-17.5 11.3-13.4 2.3-19.5-2.9-20.7-5.2 1.2-4.7 8.3-9.4 17.4-11.1 9.9-1.9 18.7.4 20.8 5z" fill="#EE1E3F"/>
      <path d="M193.3 163.6c1.8.3 3.7 0 5.5.1 2.1.1 4 .5 6 .9 1.2.3 1.9-1.5.7-1.9-3.6-1.2-9-1.7-12.3.6-.1.1-.1.3.1.3zM207.3 165.3c.9.3 1.6.8 2.3 1.2.8.5 1.8-.5 1.1-1.2-.8-.8-1.8-1.2-2.9-1.5-.4-.1-.8 0-1 .5-.1.4.1.9.5 1z" fill="#F387A4"/>
    </g>
    <g>
      <path d="M128.2 178.7c-11.8 2.2-21.9-1.1-23.1-7.5-.2-.9-.1-1.9.1-2.9l1-2 .7 1.8c1 2.1 6.9 7.5 20.5 5.2.2 0 .4-.1.6-.1 13.1-2.4 16.3-9.8 16.8-11.2l.3-1.8 1.3 1.7c.2.5.4 1 .5 1.6 1.3 6.3-7 13-18.7 15.2z" fill="#171717"/>
      <path d="M146.1 163.5c1.1 5.8-7.1 12.2-18.1 14.2-11.1 2.1-21-1-22-6.8-.2-.8-.1-1.7.1-2.5 1.2 2.5 7.6 8 21.5 5.7 14-2.4 17.5-10.2 18.1-11.9.2.4.3.8.4 1.3z" fill="#171717"/>
      <path d="M127.7 175.1c-14.8 2.5-21.3-3.6-22.5-6.2l-.1-.3.1-.3c1.3-5.5 9-10.6 18.8-12.4 10.6-2 20.1.5 22.6 6l.2.3-.1.3c-.6 1.6-4.1 9.8-18.2 12.4-.3.1-.6.2-.8.2z" fill="#171717"/>
      <path d="M145.7 162.1c-.6 1.8-4.2 9.6-18.1 11.9-13.9 2.3-20.3-3.1-21.5-5.7 1.2-5 8.5-10 18.1-11.7 10.1-1.8 19.3.6 21.5 5.5z" fill="#171717"/>
      <path d="M145.4 163.4c1 5.5-6.8 11.5-17.5 13.5s-20.2-.8-21.2-6.3c-.1-.8-.1-1.6.1-2.4 1.2 2.4 7.3 7.5 20.7 5.2 13.4-2.3 16.9-9.7 17.5-11.3.1.4.3.9.4 1.3z" fill="#A01C37"/>
      <path d="M144.9 162.1c-.6 1.7-4.1 9-17.5 11.3-13.4 2.3-19.5-2.9-20.7-5.2 1.2-4.7 8.3-9.4 17.4-11.1 9.9-1.8 18.7.4 20.8 5z" fill="#EE1E3F"/>
      <path d="M123.7 160.7c1.8.3 3.7 0 5.5.1 2.1.1 4 .5 6 .9 1.2.3 1.9-1.5.7-1.9-3.6-1.2-9-1.7-12.3.6-.1.2 0 .3.1.3zM137.7 162.5c.9.3 1.6.8 2.3 1.2.8.5 1.8-.5 1.1-1.2-.8-.8-1.8-1.2-2.9-1.5-.4-.1-.8 0-1 .5-.1.4.1.8.5 1z" fill="#F387A4"/>
    </g>
    <g>
      <path d="M71.4 157.5c-11.8 2.2-21.9-1.1-23.1-7.5-.2-.9-.1-1.9.1-2.9l1-2 .7 1.8c1 2.1 6.9 7.5 20.5 5.2.2 0 .4-.1.6-.1 13.1-2.4 16.3-9.8 16.8-11.2l.3-1.8 1.3 1.7c.2.5.4 1 .5 1.6 1.4 6.3-6.9 13-18.7 15.2z" fill="#171717"/>
      <path d="M89.4 142.2c1.1 5.8-7.1 12.2-18.1 14.2-11.1 2.1-21-1-22-6.8-.2-.8-.1-1.7.1-2.5 1.2 2.5 7.6 8 21.5 5.7 14-2.4 17.5-10.2 18.1-11.9.1.4.3.8.4 1.3z" fill="#171717"/>
      <path d="M71 153.8c-14.8 2.5-21.3-3.6-22.5-6.2l-.1-.3.1-.3c1.3-5.5 9-10.6 18.8-12.4 10.6-2 20.1.5 22.6 6l.2.3-.1.3c-.6 1.6-4.1 9.8-18.2 12.4-.4.2-.6.2-.8.2z" fill="#171717"/>
      <path d="M88.9 140.9c-.6 1.8-4.2 9.6-18.1 11.9-13.9 2.3-20.3-3.1-21.5-5.7 1.2-5 8.5-10 18.1-11.7 10.1-1.9 19.3.6 21.5 5.5z" fill="#171717"/>
      <path d="M88.6 142.1c1 5.5-6.8 11.5-17.5 13.5s-20.2-.8-21.2-6.3c-.1-.8-.1-1.6.1-2.4 1.2 2.4 7.3 7.5 20.7 5.2 13.4-2.3 16.9-9.7 17.5-11.3.2.5.3.9.4 1.3z" fill="#A01C37"/>
      <path d="M88.2 140.9c-.6 1.7-4.1 9-17.5 11.3-13.4 2.3-19.5-2.9-20.7-5.2 1.2-4.7 8.3-9.4 17.4-11.1 9.8-1.9 18.7.4 20.8 5z" fill="#EE1E3F"/>
      <path d="M66.9 139.5c1.8.3 3.7 0 5.5.1 2.1.1 4 .5 6 .9 1.2.3 1.9-1.5.7-1.9-3.6-1.2-9-1.7-12.3.6-.1.1 0 .3.1.3zM81 141.2c.9.3 1.6.8 2.3 1.2.8.5 1.8-.5 1.1-1.2-.8-.8-1.8-1.2-2.9-1.5-.4-.1-.8 0-1 .5-.1.4.1.9.5 1z" fill="#F387A4"/>
    </g>
    <g>
      <path d="M163.1 149.1c-11.8 2.2-21.9-1.1-23.1-7.5-.2-.9-.1-1.9.1-2.9l1-2 .7 1.8c1 2.1 6.9 7.5 20.5 5.2.2 0 .4-.1.6-.1 13.1-2.4 16.3-9.8 16.8-11.2l.3-1.8 1.3 1.7c.2.5.4 1 .5 1.6 1.4 6.3-6.9 13-18.7 15.2z" fill="#171717"/>
      <path d="M181.1 133.8c1.1 5.8-7.1 12.2-18.1 14.2-11.1 2.1-21-1-22-6.8-.2-.8-.1-1.7.1-2.5 1.2 2.5 7.6 8 21.5 5.7 14-2.4 17.5-10.2 18.1-11.9.1.4.3.8.4 1.3z" fill="#171717"/>
      <path d="M162.7 145.4c-14.8 2.5-21.3-3.6-22.5-6.2l-.1-.3.1-.3c1.3-5.5 9-10.6 18.8-12.4 10.6-2 20.1.5 22.6 6l.2.3-.1.3c-.6 1.6-4.1 9.8-18.2 12.4-.4.2-.6.2-.8.2z" fill="#171717"/>
      <path d="M180.6 132.5c-.6 1.8-4.2 9.6-18.1 11.9-13.9 2.3-20.3-3.1-21.5-5.7 1.2-5 8.5-10 18.1-11.7 10.1-1.9 19.3.5 21.5 5.5z" fill="#171717"/>
      <path d="M180.3 133.7c1 5.5-6.8 11.5-17.5 13.5s-20.2-.8-21.2-6.3c-.1-.8-.1-1.6.1-2.4 1.2 2.4 7.3 7.5 20.7 5.2 13.4-2.3 16.9-9.7 17.5-11.3.2.5.3.9.4 1.3z" fill="#A01C37"/>
      <path d="M179.9 132.5c-.6 1.7-4.1 9-17.5 11.3-13.4 2.3-19.5-2.9-20.7-5.2 1.2-4.7 8.3-9.4 17.4-11.1 9.8-1.9 18.7.4 20.8 5z" fill="#EE1E3F"/>
      <path d="M158.6 131.1c1.8.3 3.7 0 5.5.1 2.1.1 4 .5 6 .9 1.2.3 1.9-1.5.7-1.9-3.6-1.2-9-1.7-12.3.6-.1.1 0 .3.1.3zM172.7 132.8c.9.3 1.6.8 2.3 1.2.8.5 1.8-.5 1.1-1.2-.8-.8-1.8-1.2-2.9-1.5-.4-.1-.8 0-1 .5-.1.4.1.9.5 1z" fill="#F387A4"/>
    </g>
    <g>
      <path d="M97.8 181.2c-10.1 6.4-20.7 7.2-24.2 1.7-.5-.8-.8-1.7-1-2.7l.2-2.2 1.3 1.4c1.7 1.5 9.2 4.3 21-3 .2-.1.3-.2.5-.3 11.2-7.2 11.4-15.2 11.4-16.8l-.4-1.8 1.9 1c.4.4.8.8 1.1 1.3 3.4 5.6-1.8 14.9-11.8 21.4z" fill="#171717"/>
      <path d="M108.7 160.3c3.2 5-2 13.9-11.5 20s-19.8 7-23 2c-.5-.7-.7-1.5-.9-2.3 2.1 1.9 10.1 4.5 22.1-2.9 12-7.4 12.4-16 12.3-17.9.4.3.7.7 1 1.1z" fill="#171717"/>
      <path d="M96 178c-12.8 7.9-21 4.7-23.2 2.8l-.2-.2v-.3c-.9-5.6 4.4-13.2 12.7-18.6 9.1-5.8 18.8-7.1 23.2-3l.3.3v.4c.1 1.7-.1 10.7-12.2 18.4-.3 0-.4.1-.6.2z" fill="#171717"/>
      <path d="M107.7 159.2c.1 1.9-.3 10.4-12.3 17.9-12 7.4-20 4.8-22.1 2.9-.8-5.1 4.1-12.5 12.3-17.7 8.8-5.6 18.2-6.8 22.1-3.1z" fill="#171717"/>
      <path d="M107.9 160.5c3 4.7-2 13.2-11.2 19.1-9.2 5.9-19 6.8-22 2.1-.4-.7-.7-1.4-.8-2.2 2 1.8 9.6 4.2 21.1-2.9 11.6-7.2 12-15.3 12-17.1.4.3.7.7.9 1z" fill="#EE3A82"/>
      <path d="M107.1 159.5c.1 1.8-.4 9.9-12 17.1-11.5 7.1-19.2 4.7-21.1 2.9-.7-4.8 4.1-11.8 12-16.9 8.3-5.3 17.3-6.6 21.1-3.1z" fill="#F06EA9"/>
      <path d="M86.8 166.2c1.7-.4 3.4-1.3 5.1-2 2-.7 3.9-1.1 6-1.4 1.2-.2 1.2-2.1-.1-2-3.8.2-8.9 1.8-11.2 5.1 0 .2.1.3.2.3zM100.5 162.5c.9-.1 1.7.1 2.6.3.9.1 1.5-1.2.6-1.5-1-.4-2.2-.4-3.2-.3-.4.1-.8.4-.7.8-.1.4.3.8.7.7z" fill="#F6ACCC"/>
      <path d="M74.8 179.1c-.3-.2-.4-.5-.5-.6"/>
    </g>
    <g>
      <path d="M132.9 150.2c-10.1 6.4-20.7 7.2-24.2 1.7-.5-.8-.8-1.7-1-2.7l.2-2.2 1.3 1.4c1.7 1.5 9.2 4.3 21-3 .2-.1.3-.2.5-.3 11.2-7.2 11.4-15.2 11.4-16.8l-.4-1.8 1.9 1c.4.4.8.8 1.1 1.3 3.5 5.6-1.7 14.9-11.8 21.4z" fill="#171717"/>
      <path d="M143.8 129.3c3.2 5-2 13.9-11.5 20s-19.8 7-23 2c-.5-.7-.7-1.5-.9-2.3 2.1 1.9 10.1 4.5 22.1-2.9 12-7.4 12.4-16 12.3-17.9.5.3.8.7 1 1.1z" fill="#171717"/>
      <path d="M131.2 147c-12.8 7.9-21 4.7-23.2 2.8l-.2-.2v-.3c-.9-5.6 4.4-13.2 12.7-18.6 9.1-5.8 18.8-7.1 23.2-3l.3.3v.4c.1 1.7-.1 10.7-12.2 18.4-.3-.1-.4.1-.6.2z" fill="#171717"/>
      <path d="M142.9 128.2c.1 1.9-.3 10.4-12.3 17.9-12 7.4-20 4.8-22.1 2.9-.8-5.1 4.1-12.5 12.3-17.7 8.8-5.6 18.2-6.8 22.1-3.1z" fill="#171717"/>
      <path d="M143.1 129.5c3 4.7-2 13.2-11.2 19.1-9.2 5.9-19 6.8-22 2.1-.4-.7-.7-1.4-.8-2.2 2 1.8 9.6 4.2 21.1-2.9 11.6-7.2 12-15.3 12-17.1.4.3.7.6.9 1z" fill="#EE3A82"/>
      <path d="M142.2 128.5c.1 1.8-.4 9.9-12 17.1-11.5 7.1-19.2 4.7-21.1 2.9-.7-4.8 4.1-11.8 12-16.9 8.4-5.4 17.4-6.6 21.1-3.1z" fill="#F06EA9"/>
      <path d="M122 135.2c1.7-.4 3.4-1.3 5.1-2 2-.7 3.9-1.1 6-1.4 1.2-.2 1.2-2.1-.1-2-3.8.2-8.9 1.8-11.2 5.1 0 .2.1.3.2.3zM135.7 131.5c.9-.1 1.7.1 2.6.3.9.1 1.5-1.2.6-1.5-1-.4-2.2-.4-3.2-.3-.4.1-.8.4-.7.8-.1.4.3.7.7.7z" fill="#F6ACCC"/>
      <path d="M110 148.1c-.3-.2-.4-.5-.5-.6"/>
    </g>
    <path d="M303 165c-4.505 77.477-69.07 139-148.05 139C75.97 304 11.505 242.477 7 165c20.02 5.484 78.78 9.473 147.95 9.473 49.95 0 94.396-2.094 122.824-5.285 8.71-.997 15.917-2.094 21.322-3.29 1.401-.3 2.703-.599 3.904-.898z" fill="#282828"/>
    <path d="M299 165c-5.196 75.48-67.747 135-144.187 135C110.348 300 70.48 279.725 44 248.007c25.08 21.079 57.455 33.826 92.727 33.826 68.946 0 126.7-48.58 141.09-113.52 8.593-1.004 15.787-2.109 21.183-3.313z" fill="#111" opacity=".503"/>
    <path d="M192.421 225.533c-.202 1.299-3.438 25.18-17.997 34.574-12.335 7.994-18.402 8.793-20.02 8.893H154l.101-1.1h.101c.81 0 6.774-.399 19.514-8.693 14.155-9.193 17.39-33.574 17.492-33.774 0 0 1.112-5.296.303-10.892-1.112-7.394-5.055-11.99-11.526-13.69-.101 0-14.358-2.997-25.58-2.597h-.203H154v-1.2h.202c11.425-.5 25.783 2.599 25.985 2.599 6.976 1.798 11.324 6.794 12.436 14.589.91 5.695-.1 10.791-.202 11.29z" fill="#1E1E1E"/>
    <path d="M184 247c-2.504 4.823-5.91 9.244-10.317 12.258C161.06 267.598 155.15 268 154.35 268c-1.302-.1-8.014-.904-19.333-8.742-4.207-2.914-7.513-7.234-10.017-11.856 3.606 3.517 29.55 26.426 59-.402z" opacity=".35"/>
    <path d="M190.352 225.353c0 .201-1.49 11.65-6.859 21.792-29.225 26.814-54.97 3.917-58.648.402-5.567-10.344-7.257-21.993-7.257-22.194 0 0-1.093-5.322-.298-10.946 1.093-7.431 4.97-12.05 11.332-13.758.1 0 14.115-3.013 25.15-2.611h.397c11.034-.402 25.05 2.51 25.15 2.611 6.46 1.607 10.238 6.226 11.331 13.758.895 5.724-.198 10.946-.298 10.946z" fill="#111" opacity=".502"/>
    <path d="M154.798 267.8H155v1.2c-.303 0-7.467-.1-20.382-8.893-14.227-9.693-17.759-33.275-17.96-34.574-.101-.4-1.211-5.596-.303-11.291 1.21-7.795 5.448-12.89 12.41-14.59.202 0 14.631-3.097 25.932-2.597h.202l-.1 1.199h-.203.101c-11.2-.4-25.427 2.498-25.528 2.598-6.457 1.598-10.393 6.195-11.503 13.69-.807 5.595.303 10.791.303 10.891 0 .2 3.532 24.282 17.456 33.874 11.301 7.595 18.061 8.394 19.373 8.494z" fill="#1E1E1E"/>
    <path d="M124.7 246.7l-.4-.4"/>
  </g>
</svg>
