<svg viewBox="0 0 30 30">
  <path d="M15 5A19.938 19.938 0 00.857 10.857l3.541 3.541A14.953 14.953 0 0115 10c4.136 0 7.886 1.682 10.602 4.398l3.54-3.54A19.938 19.938 0 0015 5zm0 7a12.959 12.959 0 00-9.188 3.813l3.534 3.533A7.972 7.972 0 0115 17c.718 0 1.41.103 2.072.281a7 7 0 014.963-3.197A12.916 12.916 0 0015 12zm8 4c-2.757 0-5 2.243-5 5a2 2 0 00-2 2v5a2 2 0 002 2h10a2 2 0 002-2v-5a2 2 0 00-2-2c0-2.757-2.243-5-5-5zm0 2c1.654 0 3 1.346 3 3h-6c0-1.654 1.346-3 3-3zm-8 1a5.984 5.984 0 00-4.24 1.76L14 24v-1c0-1.549.886-2.894 2.176-3.559.024-.104.066-.2.095-.302A5.99 5.99 0 0015 19z"/>
</svg>
